<?xml version="1.0" standalone="no"?><!DOCTYPE svg PUBLIC "-//W3C//DTD SVG 1.1//EN" "http://www.w3.org/Graphics/SVG/1.1/DTD/svg11.dtd"><svg t="1660816817980" class="icon" viewBox="0 0 1024 1024" version="1.1" xmlns="http://www.w3.org/2000/svg" p-id="1056" xmlns:xlink="http://www.w3.org/1999/xlink" width="200" height="200"><defs><style type="text/css">@font-face { font-family: feedback-iconfont; src: url("//at.alicdn.com/t/font_1031158_u69w8yhxdu.woff2?t=1630033759944") format("woff2"), url("//at.alicdn.com/t/font_1031158_u69w8yhxdu.woff?t=1630033759944") format("woff"), url("//at.alicdn.com/t/font_1031158_u69w8yhxdu.ttf?t=1630033759944") format("truetype"); }
</style></defs><path d="M829.03335 1024H194.97335C77.71335 1024-13.00665 926.17 1.53335 815.41l85.73-652.85C99.46335 69.69 182.39335 0 280.70335 0h462.6c98.31 0 181.24 69.69 193.44 162.56l85.73 652.85C1037.01335 926.17 946.29335 1024 829.03335 1024z" fill="#25467A" p-id="1057"></path><path d="M194.98335 972.8c-43.21 0-83.73-17.94-111.18-49.22-25.15-28.66-36.34-64.71-31.51-101.49l85.73-652.86C146.86335 101.94 208.20335 51.2 280.70335 51.2h462.6c72.5 0 133.84 50.74 142.67 118.02l85.73 652.86c4.83 36.79-6.36 72.83-31.51 101.49-27.44 31.28-67.96 49.22-111.17 49.22H194.98335z" fill="#FED500" p-id="1058"></path><path d="M388.71335 972.8c-16.8 0-32.56-17.69-43.23-48.54-9.78-28.26-14.13-63.81-12.25-100.08l33.34-643.79C370.00335 114.03 393.86335 64 422.05335 64h179.9c28.19 0 52.05 50.03 55.48 116.38l33.34 643.79c1.88 36.28-2.47 71.82-12.25 100.08-10.67 30.85-26.43 48.54-43.23 48.54H388.71335z" fill="#FEE666" p-id="1059"></path><path d="M512.00335 550.4c-35.29 0-64-28.71-64-64 0-7.07 5.73-12.8 12.8-12.8s12.8 5.73 12.8 12.8c0 21.18 17.23 38.4 38.4 38.4s38.4-17.22 38.4-38.4c0-7.07 5.73-12.8 12.8-12.8s12.8 5.73 12.8 12.8c0 35.29-28.71 64-64 64z" fill="#25467A" p-id="1060"></path><path d="M384.00335 384m-38.4 0a38.4 38.4 0 1 0 76.8 0 38.4 38.4 0 1 0-76.8 0Z" fill="#25467A" p-id="1061"></path><path d="M640.00335 384m-38.4 0a38.4 38.4 0 1 0 76.8 0 38.4 38.4 0 1 0-76.8 0Z" fill="#25467A" p-id="1062"></path><path d="M332.80335 448h-51.2c-14.14 0-25.6 11.46-25.6 25.6s11.46 25.6 25.6 25.6h51.2c14.14 0 25.6-11.46 25.6-25.6S346.94335 448 332.80335 448zM742.40335 448h-51.2c-14.14 0-25.6 11.46-25.6 25.6s11.46 25.6 25.6 25.6h51.2c14.14 0 25.6-11.46 25.6-25.6S756.54335 448 742.40335 448z" fill="#FF806C" p-id="1063"></path><path d="M888.96335 192c-42.59 19.67-84.47 28.2-125.65 25.6-56.75-3.59-69.11-25.6-125.65-25.6-61.05 0-64.75 25.6-125.65 25.6S447.39335 192 386.35335 192c-56.54 0-68.91 22.01-125.65 25.6-41.18 2.6-83.06-5.93-125.65-25.6l2.94-22.78C146.82335 101.89 208.26335 51.2 280.70335 51.2h462.6c72.45 0 133.89 50.69 142.72 118.02l2.94 22.78z" fill="#9C6D1E" p-id="1064"></path></svg>